<?xml version="1.0" encoding="UTF-8"?>
<svg xmlns="http://www.w3.org/2000/svg" xmlns:xlink="http://www.w3.org/1999/xlink" viewBox="0 0 512 512" width="512px" height="512px">
<g id="surface19634281">
<path style=" stroke:none;fill-rule:nonzero;fill:rgb(90.196079%,49.411765%,13.333334%);fill-opacity:1;" d="M 256 48 C 141.121094 48 48 141.121094 48 256 C 48 370.878906 141.121094 464 256 464 C 370.878906 464 464 370.878906 464 256 C 464 141.121094 370.878906 48 256 48 Z M 256 80 C 293.535156 80 328.265625 91.902344 356.875 112 L 248 112 C 234.753906 112 224 122.753906 224 136 C 224 149.246094 234.753906 160 248 160 L 304 160 C 312.832031 160 320 167.167969 320 176 C 320 184.832031 312.832031 192 304 192 L 280 192 C 266.753906 192 256 202.753906 256 216 C 256 229.246094 266.753906 240 280 240 L 431.1875 240 C 431.667969 245.28125 432 250.59375 432 256 C 432 353.039062 353.039062 432 256 432 C 158.960938 432 80 353.039062 80 256 C 80 158.960938 158.960938 80 256 80 Z M 200 192 C 186.753906 192 176 202.753906 176 216 C 176 229.246094 186.753906 240 200 240 L 216 240 C 229.246094 240 240 229.246094 240 216 C 240 202.753906 229.246094 192 216 192 Z M 127.65625 256 L 127.65625 362.5625 L 153.1875 362.5625 L 153.1875 309.28125 L 187.40625 362.5625 L 208.59375 362.5625 L 208.59375 256 L 183.5625 256 L 183.5625 307.75 L 149.875 256 Z M 264.25 256 C 244.554688 256 228.59375 271.960938 228.59375 291.65625 L 228.59375 326.90625 C 228.59375 346.601562 244.554688 362.5625 264.25 362.5625 L 273.875 362.5625 C 293.570312 362.5625 309.53125 346.601562 309.53125 326.90625 L 309.53125 291.65625 C 309.53125 271.960938 293.570312 256 273.875 256 Z M 319.15625 256 L 320.1875 279.3125 L 345.1875 279.3125 L 345.1875 362.5625 L 371.75 362.5625 L 371.75 280.34375 L 399.5625 280.34375 L 399.5625 256 Z M 269.0625 280.34375 C 276.261719 280.34375 282.125 286.207031 282.125 293.40625 L 282.125 326.78125 C 282.125 333.996094 276.277344 339.84375 269.0625 339.84375 C 261.847656 339.84375 256 333.996094 256 326.78125 L 256 293.40625 C 256 286.191406 261.863281 280.34375 269.0625 280.34375 Z M 269.0625 280.34375 "/>
</g>
</svg>
